<?xml version="1.0" encoding="UTF-8"?>
<svg width="58px" height="53px" viewBox="0 0 58 53" version="1.1" xmlns="http://www.w3.org/2000/svg" xmlns:xlink="http://www.w3.org/1999/xlink">
    <!-- Generator: Sketch 46.2 (44496) - http://www.bohemiancoding.com/sketch -->
    <title>Tilda_Icons_24fn_payment</title>
    <desc>Created with Sketch.</desc>
    <defs></defs>
    <g id="Page-1" stroke="none" stroke-width="1" fill="none" fill-rule="evenodd">
        <g id="Landing" transform="translate(-760.000000, -3235.000000)" fill-rule="nonzero" fill="#E96571">
            <g id="Tilda_Icons_24fn_payment" transform="translate(760.000000, 3235.000000)">
                <path d="M57.4341301,32.3428364 C56.5017843,31.0196158 54.803099,30.5578071 53.367991,31.1014297 C53.3090418,30.520619 53.1172876,29.9600928 52.7724009,29.4698859 C51.6781142,27.9086615 49.5105456,27.5273143 47.9670254,28.6023888 L47.3944729,28.9756221 C47.3233273,28.4286189 47.1376712,27.9005477 46.8110792,27.4353583 C45.7140821,25.8768384 43.5471911,25.4954913 41.9792781,26.5874694 C41.9616611,26.5996401 41.9487872,26.6145153 41.9325253,26.6280382 C41.9257496,26.6334474 41.9176186,26.6341236 41.9108429,26.6402089 C37.3582035,30.4421859 31.8000401,34.3739832 30.3778061,34.3739832 C29.3248516,34.3739832 26.1199127,32.5828687 23.545798,31.1433508 C20.2636154,29.3089628 17.163701,27.5759969 15.3850616,27.438739 C12.0452849,27.1966782 1.85181773,33.1014738 0.698581806,33.7769451 C0.229698576,34.0514609 0.0725007306,34.6532321 0.347596961,35.1211262 C0.62269319,35.588344 1.22573665,35.7458864 1.69461988,35.4713705 C5.8454561,33.0399444 13.1754832,29.2339105 15.2332843,29.3988904 C16.5789521,29.502341 19.7689843,31.2853418 22.5829612,32.8587368 C26.2954052,34.9338333 28.6967378,36.2144566 30.1779209,36.3192594 C30.2422907,36.3327824 30.3093708,36.3395438 30.3778061,36.3395438 L37.133248,36.3395438 C38.3650829,36.3395438 39.3678967,37.340242 39.3678967,38.5708304 C39.3678967,39.8014187 38.3657604,40.8034692 37.133248,40.8034692 C37.1237619,40.8034692 37.1149534,40.8061738 37.1054674,40.8061738 C37.0912382,40.8068499 37.0783643,40.8041453 37.0641352,40.8054976 C36.9977326,40.8109068 30.394068,41.2693348 27.6708863,40.816316 C25.1191316,40.3916954 21.8579539,37.5025174 21.8254302,37.4734431 C21.4202392,37.1103519 20.797546,37.1455116 20.4357199,37.5498477 C20.0732163,37.9541839 20.1070951,38.5748873 20.5116086,38.9366261 C20.6620306,39.0711795 24.2294731,42.2362256 27.3470045,42.7548307 C28.3654026,42.9238675 29.822193,42.9793116 31.3047313,42.9793116 C34.1153204,42.9793116 37.0187375,42.7784959 37.2023609,42.765649 C37.2030384,42.765649 37.203716,42.765649 37.2043936,42.765649 C39.489183,42.7271086 41.3369352,40.862294 41.3369352,38.5715065 C41.3369352,36.25773 39.4512387,34.3753355 37.133248,34.3753355 L34.8260986,34.3753355 C38.1530013,32.2792785 41.9880866,29.1372214 43.1216728,28.1919673 C43.7999273,27.7308347 44.7282077,27.8964908 45.1984461,28.5645245 C45.4281447,28.8917799 45.5162297,29.2893545 45.4457617,29.6842246 C45.3752937,30.0790947 45.1571139,30.4219015 44.8298443,30.6511155 C44.8129048,30.6632861 44.7993533,30.6781614 44.7830914,30.6910082 C44.7498902,30.7173779 44.7160113,30.7430715 44.6875531,30.772822 C44.6699361,30.791078 44.655707,30.8113624 44.6394451,30.8302945 C44.6143748,30.8607212 44.5886269,30.8904717 44.567622,30.9229267 C44.5533929,30.9452396 44.5425516,30.9689048 44.5303553,30.9918938 C44.5127383,31.0243489 44.4944437,31.0561278 44.4808921,31.0906113 C44.4707285,31.1163049 44.4646303,31.1433508 44.4564994,31.1697206 C44.4463357,31.2035279 44.4348169,31.235983 44.4280411,31.2704665 C44.4226205,31.2988647 44.4212654,31.3279391 44.4185551,31.3563372 C44.4151672,31.3901446 44.4104241,31.4232758 44.4104241,31.4570832 C44.4104241,31.4875099 44.4151672,31.5179365 44.4178775,31.5483631 C44.4212654,31.5808182 44.4226205,31.6125971 44.4287187,31.6443761 C44.4348169,31.6768311 44.4463357,31.7086101 44.4564994,31.7410651 C44.4653079,31.7701395 44.4727612,31.7992138 44.48428,31.8282882 C44.4978316,31.8614194 44.5168037,31.8925222 44.5344207,31.9243011 C44.5466171,31.946614 44.5554256,31.9702791 44.5696547,31.992592 C44.572365,31.9966489 44.5757529,32.0000296 44.5784632,32.0040865 C44.5818511,32.0088195 44.5832063,32.0142287 44.5865941,32.0182856 C44.5967578,32.0324847 44.6103093,32.0426269 44.620473,32.0561498 C44.6536743,32.0994233 44.6889083,32.139316 44.7282077,32.1758279 C44.7478574,32.1940839 44.7681848,32.2096353 44.7885121,32.2258628 C44.8264564,32.2549372 44.8650783,32.2813069 44.9057329,32.3049721 C44.9287705,32.318495 44.9511305,32.3313418 44.9755233,32.3421602 C45.0202434,32.3631208 45.0669962,32.3793483 45.113749,32.3928713 C45.1354314,32.3989566 45.1557588,32.4077465 45.1774412,32.4124795 C45.2451989,32.4273548 45.3143118,32.4361447 45.3841022,32.4368208 C45.3874901,32.4368208 45.3902004,32.4381731 45.3929107,32.4381731 C45.4017192,32.4381731 45.4105277,32.4341163 45.4193362,32.4341163 C45.4945472,32.4320878 45.5690807,32.4199172 45.6429366,32.4003089 C45.6652966,32.3942236 45.6876566,32.3888144 45.7100167,32.3813768 C45.7859053,32.355007 45.8604388,32.3232281 45.9309068,32.2772501 L49.0674103,30.2312279 C49.7476975,29.759277 50.6847864,29.9229047 51.1584127,30.5990521 C51.3881113,30.9249552 51.4768739,31.3211776 51.4070834,31.7140192 C51.337293,32.1088893 51.1177581,32.4523722 50.7891333,32.6822624 L49.782254,33.3861318 C49.3370859,33.6978358 49.2293512,34.3104254 49.5410366,34.7546543 C49.7327909,35.0271417 50.0377005,35.1731895 50.3480307,35.1731895 C50.5431729,35.1731895 50.7403477,35.115717 50.9124523,34.9953627 L51.9030697,34.3023116 L53.7291395,33.1075591 C54.4080716,32.634932 55.3465156,32.7985597 55.8194643,33.4706503 C56.2937682,34.1488262 56.1270843,35.0859665 55.4481522,35.5585936 C55.4474746,35.5592697 55.446797,35.5599458 55.4454419,35.560622 C44.7593763,43.0469264 32.6388803,50.8043659 30.8548203,50.8260026 C29.5288022,50.8260026 26.5989596,49.0828945 24.0133261,47.5453353 C21.0963574,45.8103409 18.3413297,44.1713596 16.3953288,43.9123951 C12.5101027,43.3978469 6.52777606,47.8908466 5.85833006,48.4053948 C5.42739114,48.7360309 5.34743706,49.3526774 5.6780946,49.7827071 C6.00942971,50.213413 6.62805744,50.2931984 7.05899636,49.9625623 C8.69941009,48.7049281 13.5264681,45.5121599 16.1351392,45.861052 C17.6800146,46.0666008 20.5088982,47.7488556 23.0050916,49.2336754 C26.0812908,51.0633304 28.9860631,52.7915632 30.8541427,52.7915632 C34.1112549,52.7915632 52.8543877,39.7770774 56.5790281,37.1685006 C56.635267,37.129284 56.6854076,37.0853345 56.7308053,37.037328 C58.159815,35.9108664 58.4911501,33.8560543 57.4341301,32.3428364 Z" id="Shape"></path>
                <path d="M22.6480086,14.2964613 C26.5962493,14.2964613 29.8079639,11.0915225 29.8079639,7.15161141 C29.8079639,3.21170031 26.5955717,0.00676147434 22.6480086,0.00676147434 C18.7004454,0.00676147434 15.4880533,3.21170031 15.4880533,7.15161141 C15.4880533,11.0915225 18.6997679,14.2964613 22.6480086,14.2964613 Z M22.6480086,1.97164592 C25.5107711,1.97164592 27.8389254,4.29556465 27.8389254,7.15161141 C27.8389254,10.0076582 25.5100935,12.3315769 22.6480086,12.3315769 C19.7859237,12.3315769 17.4570918,10.0076582 17.4570918,7.15161141 C17.4570918,4.29556465 19.7859237,1.97164592 22.6480086,1.97164592 Z" id="Shape"></path>
                <path d="M40.352416,12.6412524 C43.3859278,12.6412524 45.853663,10.1787235 45.853663,7.15161141 C45.853663,4.12449935 43.3852503,1.66197039 40.352416,1.66197039 C37.3195817,1.66197039 34.8511689,4.12449935 34.8511689,7.15161141 C34.8511689,10.1787235 37.3189041,12.6412524 40.352416,12.6412524 Z M40.352416,3.62685484 C42.299772,3.62685484 43.8846244,5.20768754 43.8846244,7.15161141 C43.8846244,9.09553528 42.299772,10.676368 40.352416,10.676368 C38.4050599,10.676368 36.8202075,9.09553528 36.8202075,7.15161141 C36.8202075,5.20768754 38.4050599,3.62685484 40.352416,3.62685484 Z" id="Shape"></path>
                <path d="M24.0776959,22.4406572 C24.0776959,26.3798921 27.2894105,29.584831 31.2362961,29.584831 C35.1838592,29.584831 38.3955738,26.3798921 38.3955738,22.4406572 C38.3955738,18.5014222 35.1838592,15.2964834 31.2362961,15.2964834 C27.2894105,15.2964834 24.0776959,18.5014222 24.0776959,22.4406572 Z M31.2369736,17.2613678 C34.0990586,17.2613678 36.4272129,19.5846104 36.4272129,22.4406572 C36.4272129,25.2967039 34.098381,27.6199465 31.2369736,27.6199465 C28.3755663,27.6199465 26.047412,25.2967039 26.047412,22.4406572 C26.047412,19.5846104 28.3748887,17.2613678 31.2369736,17.2613678 Z" id="Shape"></path>
            </g>
        </g>
    </g>
</svg>