<?xml version="1.0" encoding="UTF-8"?>
<svg width="51px" height="66px" viewBox="0 0 51 66" version="1.1" xmlns="http://www.w3.org/2000/svg" xmlns:xlink="http://www.w3.org/1999/xlink">
    <!-- Generator: Sketch 46.2 (44496) - http://www.bohemiancoding.com/sketch -->
    <title>Tilda_Icons_24fn_security</title>
    <desc>Created with Sketch.</desc>
    <defs></defs>
    <g id="Page-1" stroke="none" stroke-width="1" fill="none" fill-rule="evenodd">
        <g id="Landing" transform="translate(-760.000000, -3123.000000)" fill-rule="nonzero" fill="#E96571">
            <g id="Tilda_Icons_24fn_security" transform="translate(760.000000, 3123.000000)">
                <path d="M49.7220857,10.4580667 C49.6455857,10.4316667 49.5654429,10.4104 49.4816571,10.4023333 C40.8437143,9.5326 33.9077143,7.6076 26.0340429,0.7084 C25.5925286,0.322666667 24.9244286,0.368866667 24.5404714,0.812533333 C24.5186143,0.837466667 24.5120571,0.869733333 24.4931143,0.896133333 C16.6828286,7.68826667 9.77961429,9.5986 1.19704286,10.4617333 C1.17664286,10.4639333 1.15842857,10.4705333 1.13875714,10.4734667 C1.10524286,10.4786 1.07245714,10.4852 1.0404,10.4932667 C1.0047,10.5028 0.970457143,10.5130667 0.936214286,10.5255333 C0.904885714,10.5372667 0.875014286,10.5497333 0.845142857,10.5644 C0.813085714,10.5798 0.781757143,10.5966667 0.751885714,10.6157333 C0.723471429,10.6333333 0.696514286,10.6516667 0.670285714,10.6714667 C0.6426,10.692 0.6171,10.714 0.5916,10.7367333 C0.5661,10.7602 0.542057143,10.7844 0.518742857,10.8108 C0.497614286,10.835 0.477214286,10.8592 0.457542857,10.8848667 C0.435685714,10.9142 0.415285714,10.945 0.396342857,10.9765333 C0.380314286,11.0029333 0.366471429,11.0293333 0.352628571,11.0572 C0.335871429,11.0916667 0.3213,11.1261333 0.308914286,11.1620667 C0.298714286,11.1914 0.289242857,11.2207333 0.281957143,11.2508 C0.272485714,11.2882 0.264471429,11.3256 0.258642857,11.3644667 C0.254271429,11.396 0.250628571,11.4275333 0.249171429,11.4598 C0.247714286,11.4810667 0.242614286,11.5008667 0.242614286,11.5221333 L0.242614286,38.9165333 C0.242614286,39.0111333 0.255,39.1042667 0.279771429,39.1952 C5.01475714,56.7695333 24.1164429,65.1214667 24.9273429,65.4676 C25.0599429,65.5240667 25.2005571,65.5526667 25.3411714,65.5526667 C25.4803286,65.5526667 25.6202143,65.5248 25.7513571,65.4698 C26.571,65.1222 45.8927143,56.7717333 50.6269714,39.1952 C50.6422714,39.1394667 50.6524714,39.083 50.6583,39.0250667 L50.7508286,38.1128 C50.7544714,38.0768667 50.7566571,38.0402 50.7566571,38.005 L50.7566571,11.5214 C50.7566571,10.9413333 50.2954714,10.4712667 49.7220857,10.4580667 Z M48.5607429,38.7214667 C44.4319286,53.8618667 28.1534571,62.0128667 25.3433571,63.3189333 C22.5580286,62.0114 6.51707143,53.8948667 2.35984286,38.7735333 L2.35984286,12.4769333 C10.7347714,11.5448667 17.6430857,9.49153333 25.3739571,2.9326 C33.1762286,9.526 40.1450143,11.5382667 48.6394286,12.4534667 L48.6394286,37.95 L48.5607429,38.7214667 Z" id="Shape"></path>
                <path d="M31.4167286,27.3496667 C31.4167286,27.9385333 31.8903,28.4152 32.4753429,28.4152 C33.0603857,28.4152 33.5339571,27.9385333 33.5339571,27.3496667 C33.5339571,23.9462667 30.4892571,21.1324667 26.5600714,20.6968667 L26.5600714,15.2584667 C26.5600714,14.6696 26.0865,14.1929333 25.5014571,14.1929333 C24.9164143,14.1929333 24.4428429,14.6696 24.4428429,15.2584667 L24.4428429,20.6968667 C20.5114714,21.1324667 17.4660429,23.9462667 17.4660429,27.3496667 C17.4660429,30.7516 20.5122,33.5639333 24.4428429,33.9995333 L24.4428429,43.1625333 C21.6844714,42.7753333 19.5832714,40.9016667 19.5832714,38.6503333 C19.5832714,38.0614667 19.1097,37.5848 18.5246571,37.5848 C17.9396143,37.5848 17.4660429,38.0614667 17.4660429,38.6503333 C17.4660429,42.0566667 20.5122,44.8726667 24.4428429,45.3060667 L24.4428429,50.7415333 C24.4428429,51.3304 24.9164143,51.8070667 25.5014571,51.8070667 C26.0865,51.8070667 26.5600714,51.3304 26.5600714,50.7415333 L26.5600714,45.3046 C30.4899857,44.8668 33.5339571,42.053 33.5339571,38.6503333 C33.5339571,35.2491333 30.4899857,32.4360667 26.5600714,31.999 L26.5600714,22.8404 C29.3177143,23.2290667 31.4167286,25.1005333 31.4167286,27.3496667 Z M19.5832714,27.3496667 C19.5832714,25.1005333 21.6837429,23.2290667 24.4428429,22.8404 L24.4428429,31.8552667 C21.6837429,31.4673333 19.5832714,29.5966 19.5832714,27.3496667 Z M31.4167286,38.6503333 C31.4167286,40.898 29.3177143,42.7709333 26.5600714,43.1610667 L26.5600714,34.1425333 C29.3177143,34.5326667 31.4167286,36.4034 31.4167286,38.6503333 Z" id="Shape"></path>
            </g>
        </g>
    </g>
</svg>