<?xml version="1.0" encoding="UTF-8"?>
<svg width="60px" height="55px" viewBox="0 0 60 55" version="1.1" xmlns="http://www.w3.org/2000/svg" xmlns:xlink="http://www.w3.org/1999/xlink">
    <!-- Generator: Sketch 46.2 (44496) - http://www.bohemiancoding.com/sketch -->
    <title>Tilda_Icons_24fn_mobilebank</title>
    <desc>Created with Sketch.</desc>
    <defs></defs>
    <g id="Page-1" stroke="none" stroke-width="1" fill="none" fill-rule="evenodd">
        <g id="Landing" transform="translate(-760.000000, -3358.000000)" fill-rule="nonzero" fill="#E96571">
            <g id="Tilda_Icons_24fn_mobilebank" transform="translate(760.000000, 3358.000000)">
                <path d="M56.2109677,0.409302326 L41.1154839,0.409302326 C39.2393548,0.409302326 37.7129032,1.92244186 37.7129032,3.7822093 L37.7129032,6.67290698 C37.7129032,6.67482558 37.7122581,6.67674419 37.7122581,6.67930233 C37.7122581,6.68186047 37.7129032,6.68313953 37.7129032,6.68569767 L37.7129032,26.1569767 C37.7129032,26.1588953 37.7122581,26.160814 37.7122581,26.1633721 C37.7122581,26.1659302 37.7129032,26.1672093 37.7129032,26.1697674 L37.7129032,29.0348837 C37.7129032,30.8952907 39.2393548,32.4090698 41.1154839,32.4090698 L56.2109677,32.4090698 C58.0896774,32.4090698 59.6187097,30.8952907 59.6187097,29.0348837 L59.6187097,3.7822093 C59.6187097,1.92244186 58.0896774,0.409302326 56.2109677,0.409302326 Z M39.5870968,7.60854651 L57.743871,7.60854651 L57.743871,25.2341279 L39.5870968,25.2341279 L39.5870968,7.60854651 Z M41.1154839,2.2677907 L56.2109677,2.2677907 C57.0567742,2.2677907 57.743871,2.94697674 57.743871,3.7822093 L57.743871,5.75005814 L39.5870968,5.75005814 L39.5870968,3.7822093 C39.5870968,2.94697674 40.2729032,2.2677907 41.1154839,2.2677907 Z M56.2109677,30.5512209 L41.1154839,30.5512209 C40.2729032,30.5512209 39.5877419,29.8713953 39.5877419,29.0355233 L39.5877419,27.0932558 L57.7445161,27.0932558 L57.7445161,29.0348837 C57.743871,29.8707558 57.0567742,30.5512209 56.2109677,30.5512209 Z" id="Shape"></path>
                <path d="M53.3825806,36.6555814 C52.8645161,36.6555814 52.4451613,37.0712791 52.4451613,37.5848256 L52.4451613,49.6777907 L32.7748387,49.6777907 C32.2567742,49.6777907 31.8374194,50.0934884 31.8374194,50.6070349 C31.8374194,51.1205814 32.2567742,51.5362791 32.7748387,51.5362791 L53.3825806,51.5362791 C53.9006452,51.5362791 54.32,51.1205814 54.32,50.6070349 L54.32,37.5854651 C54.32,37.0719186 53.9006452,36.6555814 53.3825806,36.6555814 Z" id="Shape"></path>
                <path d="M10.2329032,28.93 C10.7509677,28.93 11.1703226,28.5143023 11.1703226,28.0007558 L11.1703226,8.76290698 L32.0419355,8.76290698 C32.56,8.76290698 32.9793548,8.3472093 32.9793548,7.83366279 C32.9793548,7.32011628 32.56,6.9044186 32.0419355,6.9044186 L10.2329032,6.9044186 C9.71483871,6.9044186 9.29548387,7.32011628 9.29548387,7.83366279 L9.29548387,28.0007558 C9.29548387,28.5143023 9.71483871,28.93 10.2329032,28.93 Z" id="Shape"></path>
                <path d="M26.1174194,42.6831977 C25.5993548,42.6831977 25.18,43.0988953 25.18,43.6124419 L25.18,52.7322093 L20.2729032,52.7322093 L20.2729032,43.6124419 C20.2729032,43.0988953 19.8535484,42.6831977 19.3354839,42.6831977 C18.8174194,42.6831977 18.3980645,43.0988953 18.3980645,43.6124419 L18.3980645,52.7322093 L12.3225806,52.7322093 L12.3225806,43.6124419 C12.3225806,43.0988953 11.9032258,42.6831977 11.3851613,42.6831977 C10.8670968,42.6831977 10.4477419,43.0988953 10.4477419,43.6124419 L10.4477419,52.7322093 L5.50064516,52.7322093 L5.50064516,43.6124419 C5.50064516,43.0988953 5.08129032,42.6831977 4.56322581,42.6831977 C4.04516129,42.6831977 3.62580645,43.0988953 3.62580645,43.6124419 L3.62580645,53.6614535 C3.62580645,54.175 4.04516129,54.5906977 4.56322581,54.5906977 L26.1174194,54.5906977 C26.6354839,54.5906977 27.0548387,54.175 27.0548387,53.6614535 L27.0548387,43.6124419 C27.0548387,43.0995349 26.6354839,42.6831977 26.1174194,42.6831977 Z" id="Shape"></path>
                <path d="M30.7483871,39.810407 L16.1329032,31.5316279 C15.8458065,31.3685465 15.4929032,31.3685465 15.2051613,31.5303488 L0.49483871,39.8091279 C0.185806452,39.9830814 0.0187096774,40.305407 0.024516129,40.6341279 C0.0238709677,40.6488372 0.02,40.662907 0.02,40.6782558 C0.02,41.1918023 0.439354839,41.6075 0.957419355,41.6075 L29.8445161,41.6075 C29.9670968,41.6075 30.0832258,41.5825581 30.1909677,41.5403488 C30.5470968,41.5748837 30.9083871,41.406686 31.0974194,41.0779651 C31.3541935,40.6328488 31.1974194,40.0649419 30.7483871,39.810407 Z M15.6664516,33.4073837 L26.8612903,39.7490116 L4.39870968,39.7490116 L15.6664516,33.4073837 Z" id="Shape"></path>
            </g>
        </g>
    </g>
</svg>